HIERARCHY
ROOT joint_Root
{
	OFFSET 0.0 0.0 0.0
	CHANNELS 6 Xposition Yposition Zposition Zrotation Xrotation Yrotation 
	JOINT Hips
	{
		OFFSET -0.726466 93.3139 -2.00062
		CHANNELS 6 Xposition Yposition Zposition Zrotation Xrotation Yrotation 
		JOINT Spine
		{
			OFFSET 15.7357 0.0 0.0
			CHANNELS 6 Xposition Yposition Zposition Zrotation Xrotation Yrotation 
			JOINT Chest
			{
				OFFSET 8.98455 -0.406207 0.0
				CHANNELS 6 Xposition Yposition Zposition Zrotation Xrotation Yrotation 
				JOINT Neck
				{
					OFFSET 16.3773 0.0 0.0
					CHANNELS 6 Xposition Yposition Zposition Zrotation Xrotation Yrotation 
					JOINT Head
					{
						OFFSET 6.45672 0.0 0.0
						CHANNELS 6 Xposition Yposition Zposition Zrotation Xrotation Yrotation 
						End Site
						{
							OFFSET 0.0 0.0 0.0
						}
					}
				}
				JOINT Shoulder_L
				{
					OFFSET 12.9942 -0.242716 4.98039
					CHANNELS 6 Xposition Yposition Zposition Zrotation Xrotation Yrotation 
					JOINT UpperArm_L
					{
						OFFSET 5.34809 0.0 0.0
						CHANNELS 6 Xposition Yposition Zposition Zrotation Xrotation Yrotation 
						JOINT LowerArm_L
						{
							OFFSET 24.3286 1.87007e-05 0.0
							CHANNELS 6 Xposition Yposition Zposition Zrotation Xrotation Yrotation 
							JOINT Hand_L
							{
								OFFSET 22.2916 0.0 0.0
								CHANNELS 6 Xposition Yposition Zposition Zrotation Xrotation Yrotation 
								End Site
								{
									OFFSET 0.0 0.0 0.0
								}
							}
						}
					}
				}
				JOINT Shoulder_R
				{
					OFFSET 12.9945 -0.242716 -4.98039
					CHANNELS 6 Xposition Yposition Zposition Zrotation Xrotation Yrotation 
					JOINT UpperArm_R
					{
						OFFSET -5.34813 0.0 0.0
						CHANNELS 6 Xposition Yposition Zposition Zrotation Xrotation Yrotation 
						JOINT LowerArm_R
						{
							OFFSET -24.3289 0.000322201 0.0
							CHANNELS 6 Xposition Yposition Zposition Zrotation Xrotation Yrotation 
							JOINT Hand_R
							{
								OFFSET -22.2915 -0.000108084 0.0
								CHANNELS 6 Xposition Yposition Zposition Zrotation Xrotation Yrotation 
								End Site
								{
									OFFSET 0.0 0.0 0.0
								}
							}
						}
					}
				}
			}
		}
		JOINT UpperLeg_L
		{
			OFFSET -2.19248 -6.46944 0.0
			CHANNELS 6 Xposition Yposition Zposition Zrotation Xrotation Yrotation 
			JOINT LowerLeg_L
			{
				OFFSET 39.0811 0.0 -1.23785e-05
				CHANNELS 6 Xposition Yposition Zposition Zrotation Xrotation Yrotation 
				JOINT Foot_L
				{
					OFFSET 40.9854 0.0 -1.26872e-05
					CHANNELS 6 Xposition Yposition Zposition Zrotation Xrotation Yrotation 
					JOINT Toes_L
					{
						OFFSET 11.7543 0.0 0.0
						CHANNELS 6 Xposition Yposition Zposition Zrotation Xrotation Yrotation 
						End Site
						{
							OFFSET 0.0 0.0 0.0
						}
					}
				}
			}
		}
		JOINT UpperLeg_R
		{
			OFFSET -2.19251 6.46944 0.0
			CHANNELS 6 Xposition Yposition Zposition Zrotation Xrotation Yrotation 
			JOINT LowerLeg_R
			{
				OFFSET -39.0811 -0.00228153 -0.0401928
				CHANNELS 6 Xposition Yposition Zposition Zrotation Xrotation Yrotation 
				JOINT Foot_R
				{
					OFFSET -40.9854 0.0 0.0
					CHANNELS 6 Xposition Yposition Zposition Zrotation Xrotation Yrotation 
					JOINT Toes_R
					{
						OFFSET -11.7543 0.0 0.0
						CHANNELS 6 Xposition Yposition Zposition Zrotation Xrotation Yrotation 
						End Site
						{
							OFFSET 0.0 0.0 0.0
						}
					}
				}
			}
		}
	}
}
MOTION
Frames:	9
Frame Time:	0.0333333
0.000000 0.000000 0.000000 0.000000 0.000000 -0.000000 1.126990 92.278900 -1.962930 87.584000 -1.986920 5.556440 15.735700 0.000005 -0.000001 91.486700 85.552800 -92.267500 8.984550 -0.406207 -0.000000 1.127800 0.275887 -1.563030 16.377300 -0.000001 -0.000001 4.830340 -3.240070 3.191830 6.456720 -0.000001 -0.000000 5.645740 -4.386730 -0.460849 12.994200 -0.242716 4.980390 -89.877200 -0.382674 -72.210200 5.348090 -0.000007 -0.000001 -66.671700 40.825900 -13.991600 24.328600 0.000019 0.000005 1.299940 3.249260 -21.818200 22.291600 -0.000001 0.000005 4.418670 5.506920 -6.814490 12.994500 -0.242716 -4.980390 90.244400 -0.716810 -71.168900 -5.348130 -0.000001 -0.000004 -77.501000 -27.165300 -97.104400 -24.328900 0.000322 -0.000009 12.928300 2.282680 -80.158300 -22.291500 -0.000108 -0.000004 21.124900 5.382020 -2.362030 -2.192480 -6.469440 -0.000000 -176.571000 -4.987620 -1.904590 39.081100 -0.000007 -0.000012 -0.064929 0.146996 23.831500 40.985400 -0.000006 -0.000013 0.995057 2.075510 -66.675800 11.754300 -0.000000 0.000003 -0.000037 -0.000430 -16.594300 -2.192510 6.469440 -0.000001 178.940000 12.873600 -178.771000 -39.081100 -0.002282 -0.040193 0.022190 -0.052761 19.677500 -40.985400 0.000008 0.000006 3.988530 7.003800 -65.778200 -11.754300 -0.000006 -0.000006 -0.006610 -0.076282 -19.678200
0.000000 0.000000 0.000000 0.000000 0.000000 -0.000000 1.158450 92.279400 -1.985960 87.570900 -2.076310 5.543110 15.735700 0.000005 -0.000001 91.331400 85.538800 -92.078300 8.984550 -0.406207 -0.000000 1.156130 0.250295 -1.495150 16.377300 -0.000001 -0.000001 4.844190 -3.258940 3.129850 6.456720 -0.000001 -0.000000 5.672830 -4.375870 -0.421851 12.994200 -0.242716 4.980390 -89.869700 -0.406998 -72.241600 5.348090 -0.000007 -0.000001 -66.827700 40.754800 -14.007200 24.328600 0.000019 0.000005 1.369130 3.423650 -21.811600 22.291600 -0.000001 0.000005 4.282450 5.506380 -6.792450 12.994500 -0.242716 -4.980390 90.229400 -0.669109 -71.073200 -5.348130 -0.000001 -0.000004 -77.206000 -27.012900 -96.618600 -24.328900 0.000322 -0.000009 12.912800 2.248460 -80.291200 -22.291500 -0.000108 -0.000004 21.122400 5.383020 -2.393580 -2.192480 -6.469440 -0.000000 -176.562000 -5.131800 -1.934260 39.081100 -0.000007 -0.000012 -0.066229 0.149812 23.849400 40.985400 -0.000006 -0.000013 1.033570 2.141000 -66.673900 11.754300 -0.000000 0.000003 -0.000034 -0.000408 -16.593500 -2.192510 6.469440 -0.000001 178.943000 12.793400 -178.821000 -39.081100 -0.002282 -0.040193 0.021603 -0.051102 19.684100 -40.985400 0.000008 0.000006 3.936210 7.009850 -65.739700 -11.754300 -0.000006 -0.000006 -0.006409 -0.074503 -19.605600
0.000000 0.000000 0.000000 0.000000 0.000000 -0.000000 1.189360 92.272700 -1.997090 87.562900 -2.138170 5.577170 15.735700 0.000005 -0.000001 91.107900 85.507400 -91.830300 8.984550 -0.406207 -0.000000 1.219210 0.214914 -1.445760 16.377300 -0.000001 -0.000001 4.879170 -3.278140 3.087960 6.456720 -0.000001 -0.000000 5.622610 -4.364060 -0.491763 12.994200 -0.242716 4.980390 -89.890700 -0.341405 -72.241900 5.348090 -0.000007 -0.000001 -66.756600 40.895800 -14.086000 24.328600 0.000019 0.000005 1.319710 3.299630 -21.813000 22.291600 -0.000001 0.000005 4.372080 5.506200 -6.784900 12.994500 -0.242716 -4.980390 90.206200 -0.596071 -70.916400 -5.348130 -0.000001 -0.000004 -76.545200 -26.809600 -95.579100 -24.328900 0.000322 -0.000009 13.122500 2.182940 -80.722100 -22.291500 -0.000108 -0.000004 21.295800 5.376360 -2.184520 -2.192480 -6.469440 -0.000000 -176.573000 -5.164240 -1.928720 39.081100 -0.000007 -0.000012 -0.063947 0.144276 23.904200 40.985400 -0.000006 -0.000013 1.045180 2.092800 -66.697700 11.754300 -0.000000 0.000003 -0.000042 -0.000490 -16.596600 -2.192510 6.469440 -0.000001 178.936000 12.720500 -178.821000 -39.081100 -0.002282 -0.040193 0.022426 -0.053223 19.745700 -40.985400 0.000008 0.000006 3.999310 7.004230 -65.776400 -11.754300 -0.000006 -0.000006 -0.006528 -0.075557 -19.648600
0.000000 0.000000 0.000000 0.000000 0.000000 -0.000000 1.202860 92.275700 -2.020290 87.569500 -2.168810 5.604730 15.735700 0.000005 -0.000001 90.759000 85.478300 -91.484800 8.984550 -0.406207 -0.000000 1.278070 0.160815 -1.452160 16.377300 -0.000001 -0.000001 4.873090 -3.328330 3.030430 6.456720 -0.000001 -0.000000 5.666690 -4.342750 -0.470268 12.994200 -0.242716 4.980390 -89.901900 -0.306709 -72.257600 5.348090 -0.000007 -0.000001 -66.790100 40.831800 -14.091600 24.328600 0.000019 0.000005 1.366800 3.420720 -21.794800 22.291600 -0.000001 0.000005 4.384340 5.505910 -6.773410 12.994500 -0.242716 -4.980390 90.155700 -0.447365 -70.809500 -5.348130 -0.000001 -0.000004 -75.357900 -26.663800 -93.596500 -24.328900 0.000322 -0.000009 12.796600 1.891150 -81.735000 -22.291500 -0.000108 -0.000004 21.337700 5.371680 -2.038610 -2.192480 -6.469440 -0.000000 -176.596000 -5.147190 -1.906120 39.081100 -0.000007 -0.000012 -0.064371 0.145341 23.888200 40.985400 -0.000006 -0.000013 1.047990 2.042410 -66.676100 11.754300 -0.000000 0.000003 -0.000036 -0.000427 -16.594200 -2.192510 6.469440 -0.000001 178.928000 12.698800 -178.822000 -39.081100 -0.002282 -0.040193 0.023098 -0.055098 19.744000 -40.985400 0.000008 0.000006 3.936620 6.999450 -65.736200 -11.754300 -0.000006 -0.000006 -0.006483 -0.075157 -19.632300
0.000000 0.000000 0.000000 0.000000 0.000000 -0.000000 1.208570 92.272700 -2.035130 87.557200 -2.168540 5.634850 15.735700 0.000005 -0.000001 90.364200 85.447000 -91.085700 8.984550 -0.406207 -0.000000 1.340760 0.098299 -1.442760 16.377300 -0.000001 -0.000001 4.914010 -3.337400 2.934690 6.456720 -0.000001 -0.000000 5.637780 -4.329290 -0.534210 12.994200 -0.242716 4.980390 -89.926600 -0.229499 -72.252600 5.348090 -0.000007 -0.000001 -66.810500 40.802300 -14.081500 24.328600 0.000019 0.000005 1.365660 3.420030 -21.782200 22.291600 -0.000001 0.000005 4.440540 5.506570 -6.800060 12.994500 -0.242716 -4.980390 90.087200 -0.250324 -70.798000 -5.348130 -0.000001 -0.000004 -73.301700 -26.568800 -90.468200 -24.328900 0.000322 -0.000009 11.782600 1.375920 -83.435300 -22.291500 -0.000108 -0.000004 21.622600 5.365050 -1.833990 -2.192480 -6.469440 -0.000000 -176.593000 -5.071530 -1.905120 39.081100 -0.000007 -0.000012 -0.065271 0.147122 23.924800 40.985400 -0.000006 -0.000013 1.033220 1.973510 -66.683000 11.754300 -0.000000 0.000003 -0.000035 -0.000410 -16.593500 -2.192510 6.469440 -0.000001 178.928000 12.676500 -178.812000 -39.081100 -0.002282 -0.040193 0.022776 -0.054134 19.766500 -40.985400 0.000008 0.000006 3.951880 7.008850 -65.741500 -11.754300 -0.000006 -0.000006 -0.006439 -0.074774 -19.616600
0.000000 0.000000 0.000000 0.000000 0.000000 -0.000000 1.195830 92.269600 -2.048300 87.533000 -2.215850 5.665290 15.735700 0.000005 -0.000001 90.068100 85.419700 -90.791200 8.984550 -0.406207 -0.000000 1.395210 0.051071 -1.445530 16.377300 -0.000001 -0.000001 4.889830 -3.310310 2.856340 6.456720 -0.000001 -0.000000 5.728910 -4.274920 -0.653026 12.994200 -0.242716 4.980390 -89.941000 -0.184136 -72.217600 5.348090 -0.000007 -0.000001 -66.808600 40.891900 -14.085800 24.328600 0.000019 0.000005 1.409820 3.531430 -21.778700 22.291600 -0.000001 0.000005 4.339910 5.505220 -6.745180 12.994500 -0.242716 -4.980390 89.984100 0.045970 -70.882900 -5.348130 -0.000001 -0.000004 -70.258500 -26.288300 -86.026800 -24.328900 0.000322 -0.000009 11.015900 0.785185 -85.975200 -22.291500 -0.000108 -0.000004 21.449800 5.361280 -1.718690 -2.192480 -6.469440 -0.000000 -176.547000 -5.186110 -1.905070 39.081100 -0.000007 -0.000012 -0.064997 0.146177 23.972100 40.985400 -0.000006 -0.000013 1.039850 2.018630 -66.695600 11.754300 -0.000000 0.000003 -0.000040 -0.000461 -16.595500 -2.192510 6.469440 -0.000001 178.966000 12.646000 -178.814000 -39.081100 -0.002282 -0.040193 0.023616 -0.056383 19.795100 -40.985400 0.000008 0.000006 3.985830 7.003490 -65.741900 -11.754300 -0.000006 -0.000006 -0.006434 -0.074732 -19.614900
0.000000 0.000000 0.000000 0.000000 0.000000 -0.000000 1.182350 92.272200 -2.065900 87.546400 -2.241360 5.693160 15.735700 0.000005 -0.000001 89.681800 85.384800 -90.432900 8.984550 -0.406207 -0.000000 1.464600 -0.009946 -1.500750 16.377300 -0.000001 -0.000001 4.877640 -3.222370 2.675910 6.456720 -0.000001 -0.000000 5.719180 -4.195700 -0.641472 12.994200 -0.242716 4.980390 -89.958900 -0.127485 -72.130500 5.348090 -0.000007 -0.000001 -66.744100 40.976500 -14.114200 24.328600 0.000019 0.000005 1.351430 3.382250 -21.794300 22.291600 -0.000001 0.000005 4.331920 5.507340 -6.831940 12.994500 -0.242716 -4.980390 89.808600 0.557704 -71.055500 -5.348130 -0.000001 -0.000004 -66.040500 -25.603700 -80.247500 -24.328900 0.000322 -0.000009 10.055000 0.130000 -89.268800 -22.291500 -0.000108 -0.000004 21.148600 5.355740 -1.550460 -2.192480 -6.469440 -0.000000 -176.556000 -5.091020 -1.866130 39.081100 -0.000007 -0.000012 -0.066348 0.149409 23.944800 40.985400 -0.000006 -0.000013 1.005270 1.942190 -66.677200 11.754300 -0.000000 0.000003 -0.000041 -0.000471 -16.595900 -2.192510 6.469440 -0.000001 178.945000 12.689500 -178.785000 -39.081100 -0.002282 -0.040193 0.022759 -0.054037 19.783900 -40.985400 0.000008 0.000006 3.949900 7.071440 -65.726500 -11.754300 -0.000006 -0.000006 -0.006374 -0.074197 -19.593100
0.000000 0.000000 0.000000 0.000000 0.000000 -0.000000 1.157100 92.258800 -2.072030 87.524100 -2.285370 5.702080 15.735700 0.000005 -0.000001 89.558000 85.340200 -90.314200 8.984550 -0.406207 -0.000000 1.553580 -0.030873 -1.510620 16.377300 -0.000001 -0.000001 4.712570 -3.111890 2.505090 6.456720 -0.000001 -0.000000 5.810730 -4.083030 -0.799630 12.994200 -0.242716 4.980390 -89.984200 -0.048943 -72.042100 5.348090 -0.000007 -0.000001 -66.663000 41.059800 -14.152700 24.328600 0.000019 0.000005 1.317170 3.280220 -21.891600 22.291600 -0.000001 0.000005 4.312430 5.505560 -6.758750 12.994500 -0.242716 -4.980390 89.624900 1.117140 -71.439900 -5.348130 -0.000001 -0.000004 -60.854600 -24.365800 -73.393500 -24.328900 0.000322 -0.000009 8.289580 -0.432550 -92.967900 -22.291500 -0.000108 -0.000004 20.560800 5.357870 -1.614820 -2.192480 -6.469440 -0.000000 -176.520000 -5.157830 -1.917560 39.081100 -0.000007 -0.000012 -0.064751 0.145033 24.058600 40.985400 -0.000006 -0.000013 0.993547 1.918460 -66.725800 11.754300 -0.000000 0.000003 -0.000037 -0.000437 -16.594600 -2.192510 6.469440 -0.000001 178.972000 12.678900 -178.830000 -39.081100 -0.002282 -0.040193 0.019080 -0.043613 19.866200 -40.985400 0.000008 0.000006 3.864280 7.116130 -65.742300 -11.754300 -0.000006 -0.000006 -0.006589 -0.076091 -19.670400
0.000000 0.000000 0.000000 0.000000 0.000000 -0.000000 1.137160 92.263000 -2.091850 87.516300 -2.343570 5.731290 15.735700 0.000005 -0.000001 89.653000 85.295100 -90.406600 8.984550 -0.406207 -0.000000 1.643940 -0.016718 -1.505590 16.377300 -0.000001 -0.000001 4.573770 -2.915240 2.226380 6.456720 -0.000001 -0.000000 5.802490 -3.947180 -0.917578 12.994200 -0.242716 4.980390 -90.016400 0.050190 -71.940700 5.348090 -0.000007 -0.000001 -66.627400 41.064800 -14.177000 24.328600 0.000019 0.000005 1.327090 3.311060 -21.855000 22.291600 -0.000001 0.000005 4.286850 5.507540 -6.840260 12.994500 -0.242716 -4.980390 89.408600 1.793530 -71.748000 -5.348130 -0.000001 -0.000004 -55.334500 -21.740000 -66.026000 -24.328900 0.000322 -0.000009 7.375410 -0.834623 -96.422300 -22.291500 -0.000108 -0.000004 19.360700 5.367340 -1.904530 -2.192480 -6.469440 -0.000000 -176.490000 -5.148700 -1.881420 39.081100 -0.000007 -0.000012 -0.067201 0.150662 24.038900 40.985400 -0.000006 -0.000013 0.967528 1.896450 -66.707900 11.754300 -0.000000 0.000003 -0.000038 -0.000440 -16.594700 -2.192510 6.469440 -0.000001 178.987000 12.657500 -178.800000 -39.081100 -0.002282 -0.040193 0.019417 -0.044608 19.840100 -40.985400 0.000008 0.000006 3.884280 7.159270 -65.721300 -11.754300 -0.000006 -0.000006 -0.006247 -0.073067 -19.547000
